<?xml version="1.0" encoding="utf-8"?>
<svg aria-hidden="true" focusable="false" data-prefix="fas" data-icon="text-height" class="svg-inline--fa fa-text-height fa-w-18" role="img" viewBox="0 0 576 512" xmlns="http://www.w3.org/2000/svg">
  <path fill="#FFFFFF" d="M 433.008 29.696 L 145.008 29.696 C 136.171 29.696 129.008 36.859 129.008 45.696 L 129.008 141.696 C 129.008 150.533 136.171 157.696 145.008 157.696 L 177.008 157.696 C 185.845 157.696 193.008 150.533 193.008 141.696 L 193.008 109.696 L 249.008 109.696 L 249.008 413.696 L 209.008 413.696 C 200.171 413.696 193.008 420.859 193.008 429.696 L 193.008 461.696 C 193.008 470.533 200.171 477.696 209.008 477.696 L 369.008 477.696 C 377.845 477.696 385.008 470.533 385.008 461.696 L 385.008 429.696 C 385.008 420.859 377.845 413.696 369.008 413.696 L 329.008 413.696 L 329.008 109.696 L 385.008 109.696 L 385.008 141.696 C 385.008 150.533 392.171 157.696 401.008 157.696 L 433.008 157.696 C 441.845 157.696 449.008 150.533 449.008 141.696 L 449.008 45.696 C 449.008 36.859 441.845 29.696 433.008 29.696 Z"/>
</svg>